<mxfile host="app.diagrams.net" modified="2023-07-15T05:39:41.482Z" agent="Mozilla/5.0 (Macintosh; Intel Mac OS X 10_15_7) AppleWebKit/537.36 (KHTML, like Gecko) Chrome/114.0.0.0 Safari/537.36" version="21.6.2" etag="e6RwNkkpS93MOS3Eguzg" type="github">
  <diagram name="第 1 页" id="xs4n87azNwswCmorah3y">
    <mxGraphModel>
      <root>
        <mxCell id="0" />
        <mxCell id="1" parent="0" />
      </root>
    </mxGraphModel>
  </diagram>
</mxfile>
